<?xml version="1.0" encoding="UTF-8" standalone="no"?>
<!-- Created with Inkscape (http://www.inkscape.org/) -->

<svg
   width="197.90833mm"
   height="193.675mm"
   viewBox="0 0 197.90833 193.675"
   version="1.1"
   id="svg5"
   xml:space="preserve"
   inkscape:version="1.2 (dc2aedaf03, 2022-05-15)"
   sodipodi:docname="drawing.svg"
   inkscape:export-filename="mount1.jpg"
   inkscape:export-xdpi="96"
   inkscape:export-ydpi="96"
   xmlns:inkscape="http://www.inkscape.org/namespaces/inkscape"
   xmlns:sodipodi="http://sodipodi.sourceforge.net/DTD/sodipodi-0.dtd"
   xmlns="http://www.w3.org/2000/svg"
   xmlns:svg="http://www.w3.org/2000/svg"><sodipodi:namedview
     id="namedview7"
     pagecolor="#ffffff"
     bordercolor="#000000"
     borderopacity="0.25"
     inkscape:showpageshadow="2"
     inkscape:pageopacity="0.0"
     inkscape:pagecheckerboard="0"
     inkscape:deskcolor="#d1d1d1"
     inkscape:document-units="mm"
     showgrid="false"
     inkscape:zoom="0.71624579"
     inkscape:cx="524.26137"
     inkscape:cy="480.98014"
     inkscape:window-width="1920"
     inkscape:window-height="991"
     inkscape:window-x="-9"
     inkscape:window-y="-9"
     inkscape:window-maximized="1"
     inkscape:current-layer="layer1" /><defs
     id="defs2"><clipPath
       clipPathUnits="userSpaceOnUse"
       id="clipPath7783"><path
         d="M 0,549 H 561 V 0 H 0 Z"
         id="path7781" /></clipPath><clipPath
       clipPathUnits="userSpaceOnUse"
       id="clipPath7847"><path
         d="M 0,549 H 561 V 0 H 0 Z"
         id="path7845" /></clipPath><linearGradient
       x1="0"
       y1="0"
       x2="1"
       y2="0"
       gradientUnits="userSpaceOnUse"
       gradientTransform="matrix(376.794,0,0,376.794,-0.6152,594.9952)"
       spreadMethod="pad"
       id="linearGradient7855"><stop
         style="stop-opacity:1;stop-color:#ffffff"
         offset="0"
         id="stop7851" /><stop
         style="stop-opacity:1;stop-color:#231f20"
         offset="1"
         id="stop7853" /></linearGradient><clipPath
       clipPathUnits="userSpaceOnUse"
       id="clipPath7865"><path
         d="m 141.58,238.458 c -3.621,-6.47 -4.379,-13.465 -4.263,-20.726 v 0 c 0.072,-4.435 1.777,-6.105 6.335,-6.025 v 0 c 13.465,0.238 26.937,0.085 40.405,0.085 v 0 c 0,-0.169 0,-0.338 0,-0.507 v 0 c 10.31,0 20.62,0.031 30.93,-0.006 v 0 c 14.21,-0.054 14.044,-0.056 15.763,14.276 v 0 c 0.566,4.718 -0.817,5.963 -5.46,6.108 v 0 c -14.091,0.441 -28.255,0.689 -42.222,2.386 v 0 c -11.652,1.415 -23.108,4.6 -34.565,7.36 v 0 c -0.801,0.193 -1.516,0.29 -2.164,0.289 v 0 c -2.152,0 -3.544,-1.07 -4.759,-3.24"
         id="path7863" /></clipPath><clipPath
       clipPathUnits="userSpaceOnUse"
       id="clipPath7885"><path
         d="M 0,549 H 561 V 0 H 0 Z"
         id="path7883" /></clipPath><linearGradient
       x1="0"
       y1="0"
       x2="1"
       y2="0"
       gradientUnits="userSpaceOnUse"
       gradientTransform="matrix(94.563,0,0,94.563,-47.2506,534.307)"
       spreadMethod="pad"
       id="linearGradient7893"><stop
         style="stop-opacity:1;stop-color:#ffffff"
         offset="0"
         id="stop7889" /><stop
         style="stop-opacity:1;stop-color:#231f20"
         offset="1"
         id="stop7891" /></linearGradient><clipPath
       clipPathUnits="userSpaceOnUse"
       id="clipPath12795"><path
         d="M 232.50302,468.841 C 224.08,446.24 215.62397,423.65 207.21002,401.044 v 0 c -2.346,-6.3 -4.59,-12.639 -7.2,-19.842 v 0 c 2.82495,0 4.60995,-0.043 6.39195,0.007 v 0 c 24.65003,0.682 49.29705,1.465 73.95,1.97599 v 0 c 3.94403,0.081 5.118,2.256 6.14903,5.22701 v 0 c 3.276,9.43399 6.537,18.871 9.939,28.25899 v 0 c 0.447,1.234 1.68097,2.184 2.55,3.26601 v 0 c 0.87697,-1.07201 2.07502,-2.01201 2.58097,-3.23801 v 0 C 307.726,401.78799 313.807,386.847 319.84503,371.888 v 0 c 2.45197,-6.07601 4.755,-12.209 7.365,-18.93 v 0 c -3.873,1.77 -6.70703,3.43699 -9.76005,4.39699 v 0 c -14.89801,4.68501 -30.30698,6.537 -45.81398,6.69 v 0 c -14.43,0.141 -28.863,0.082 -43.29398,0.024 v 0 c -15.894,-0.066 -31.788,-0.13099 -47.679,0.074 v 0 c -22.40302,0.287 -43.84605,5.508 -63.90105,15.672 v 0 c -6.91095,3.503 -13.476,7.685 -20.916,11.969 v 0 c 0,-3.674 -0.28695,-6.923 0.045,-10.109 v 0 c 2.888025,-27.709 20.79405,-49.25601 45.71903,-55.812 v 0 c 16.218,-4.266 32.799,-5.754 49.386,-6.559 v 0 c 24.28897,-1.18001 48.63,-1.229 72.93802,-2.06801 v 0 c 24.52598,-0.846 48.80596,-3.474 72.45001,-10.659 v 0 c 7.41795,-2.25499 13.02997,-5.39199 15.459,-13.54999 v 0 c 2.41297,-8.10101 6.162,-15.803 9.27195,-23.7 v 0 c 0.55402,-1.407 0.852,-2.915 1.269,-4.377 v 0 c -0.37695,-0.275 -0.75495,-0.551 -1.13295,-0.826 v 0 c -2.95305,2.019 -5.898,4.053 -8.862,6.057 v 0 c -21.54,14.55599 -44.90505,23.872 -71.20306,24.706 v 0 c -41.958,1.33 -83.913,2.8 -125.87797,3.86899 v 0 c -14.65403,0.37401 -28.24403,3.981 -41.145,10.671 v 0 c -4.88498,2.53401 -9.753,5.09901 -15.59498,8.15501 v 0 c 2.51198,-15.878 9.03795,-28.196 19.37295,-38.706 v 0 c 9.594,-9.756 22.29705,-14.349 34.00703,-20.437 v 0 c 16.914,-8.792 35.76,-10.519 54.34297,-11.262 v 0 c 27.45203,-1.098 54.96405,-1.063 82.44705,-0.961 v 0 c 20.34098,0.074 40.27696,-1.726 59.24198,-9.541 v 0 c 6.44303,-2.656 13.101,-5.369 18.657,-9.43 v 0 c 5.21198,-3.81 12.63698,-4.10801 16.19903,-10.44 v 0 c 0.39195,-0.698 2.09895,-0.88601 3.207,-0.918 v 0 c 25.98195,-0.726 51.96495,-1.419 77.94997,-2.022 v 0 c 1.338,-0.031 3.606,0.481 3.89903,1.29499 v 0 c 1.90395,5.28201 5.38597,10.104 2.58,16.50701 v 0 c -9.47903,21.644 -18.543,43.472 -27.71303,65.252 v 0 c -18.08002,42.945 -36.11002,85.911 -54.18802,128.857 v 0 c -5.74395,13.64499 -11.41695,27.324 -17.43398,40.849 v 0 c -2.655,5.968 -7.04302,9.283 -14.35597,9.347 v 0 c -37.15305,0.33 -74.30101,1.128 -111.45001,1.739 v 0 c -0.13605,0.002 -0.27105,0.003 -0.405,0.003 v 0 c -6.49702,0 -10.11,-2.665 -12.423,-8.873"
         id="path12797"
         style="stroke-width:0.999998" /></clipPath></defs><g
     id="g7777"
     transform="matrix(0.35277777,0,0,-0.35277777,0,193.675)"><g
       id="g7779"
       clip-path="url(#clipPath7783)"><g
         id="g7785"
         transform="translate(210.375,136.875)"><path
           d="m 0,0 c -0.479,-4.448 -0.025,-8.677 -0.099,-11.893 -0.164,-7.158 -0.153,-14.322 -0.075,-21.481 0.084,-7.711 -0.932,-10.387 -8.451,-10.378 -4.498,0.005 -10.42,-0.189 -14.866,0.303 -1.594,0.177 -3.386,1.952 -4.343,3.469 -0.798,1.265 -0.661,3.216 -0.677,4.867 -0.162,17.154 -0.31,34.309 -0.377,51.465 -0.032,8.332 1.702,9.239 9.826,9.273 7.657,0.032 15.157,-0.152 22.812,0 9.837,0.196 18.79,-2.192 27.072,-7.04 7.375,-4.317 3.976,-5.709 12.507,0.029 7.912,5.322 16.592,7.299 26.296,7.011 8.485,-0.252 16.847,0.233 25.333,0 5.214,-0.144 7.328,-1.643 7.353,-6.768 0.086,-18.656 0.058,-37.313 0.211,-55.968 0.032,-3.743 1.167,-6.535 -2.568,-6.683 -4.15,-0.164 -14.172,-0.144 -18.333,0.008 -6.797,0.25 -6.43,4.651 -6.645,11.503 -0.269,8.487 -0.097,16.988 -0.241,25.481 -0.026,1.542 -0.049,4.749 -0.401,6.285 C 72.739,-1.094 70.182,-2.942 69,-3.987 61.271,-10.819 53.662,-17.787 46.108,-24.813 39.244,-31.199 35.448,-31.401 28.496,-25.151 21.192,-18.584 14.039,-11.849 6.764,-5.247 5.364,-3.977 2.686,-1.96 0,0"
           style="fill:#000000;fill-opacity:1;fill-rule:evenodd;stroke:none"
           id="path7787" /></g><g
         id="g7789"
         transform="translate(210.375,136.875)"><path
           d="m 0,0 c -0.479,-4.448 -0.025,-8.677 -0.099,-11.893 -0.164,-7.158 -0.153,-14.322 -0.075,-21.481 0.084,-7.711 -0.932,-10.387 -8.451,-10.378 -4.498,0.005 -10.42,-0.189 -14.866,0.303 -1.594,0.177 -3.386,1.952 -4.343,3.469 -0.798,1.265 -0.661,3.216 -0.677,4.867 -0.162,17.154 -0.31,34.309 -0.377,51.465 -0.032,8.332 1.702,9.239 9.826,9.273 7.657,0.032 15.157,-0.152 22.812,0 9.837,0.196 18.79,-2.192 27.072,-7.04 7.375,-4.317 3.976,-5.709 12.507,0.029 7.912,5.322 16.592,7.299 26.296,7.011 8.485,-0.252 16.847,0.233 25.333,0 5.214,-0.144 7.328,-1.643 7.353,-6.768 0.086,-18.656 0.058,-37.313 0.211,-55.968 0.032,-3.743 1.167,-6.535 -2.568,-6.683 -4.15,-0.164 -14.172,-0.144 -18.333,0.008 -6.797,0.25 -6.43,4.651 -6.645,11.503 -0.269,8.487 -0.097,16.988 -0.241,25.481 -0.026,1.542 -0.049,4.749 -0.401,6.285 C 72.739,-1.094 70.182,-2.942 69,-3.987 61.271,-10.819 53.662,-17.787 46.108,-24.813 39.244,-31.199 35.448,-31.401 28.496,-25.151 21.192,-18.584 14.039,-11.849 6.764,-5.247 5.364,-3.977 2.686,-1.96 0,0 Z"
           style="fill:none;stroke:#000000;stroke-width:0.5;stroke-linecap:butt;stroke-linejoin:miter;stroke-miterlimit:10;stroke-dasharray:none;stroke-opacity:1"
           id="path7791" /></g><g
         id="g7793"
         transform="translate(424.2939,135.4629)"><path
           d="m 0,0 c -0.082,-1.592 -0.231,-3.183 -0.235,-4.774 -0.021,-9.158 0.045,-18.316 -0.021,-27.473 -0.05,-7.002 -1.481,-10.128 -8.288,-10.344 -4.656,-0.147 -9.215,0.071 -13.875,0 -2.748,-0.042 -4.713,2.2 -4.712,5.328 0.005,20.314 -0.1,40.627 0.086,60.939 0.013,1.373 2.153,3.337 3.318,3.37 12.466,0.352 24.6,-0.009 37.121,-0.009 8.45,0 15.422,-4.228 21.511,-10.069 9.714,-9.318 19.733,-18.321 29.744,-27.32 1.497,-1.049 3.74,-2.152 5.474,-2.944 0.653,1.957 1.294,4.429 1.549,6.384 0.257,7.983 -0.1,15.99 0.289,23.963 0.12,10.049 0.557,10.02 13.183,9.986 14.186,0.034 14.937,1.943 14.474,-13.161 -0.003,-14.153 0.013,-28.306 -0.025,-42.459 -0.019,-6.804 -2.022,-13.119 -8.512,-14.061 -9.687,-0.188 -37.875,-1.13 -41.625,-0.13 -5.63,4.313 -16.221,15.94 -21.804,20.843 C 18.969,-14.304 10.473,-6.464 1.896,1.286 1.265,0.857 0.633,0.429 0,0"
           style="fill:#000000;fill-opacity:1;fill-rule:evenodd;stroke:none"
           id="path7795" /></g><g
         id="g7797"
         transform="translate(424.2939,135.4629)"><path
           d="m 0,0 c -0.082,-1.592 -0.231,-3.183 -0.235,-4.774 -0.021,-9.158 0.045,-18.316 -0.021,-27.473 -0.05,-7.002 -1.481,-10.128 -8.288,-10.344 -4.656,-0.147 -9.215,0.071 -13.875,0 -2.748,-0.042 -4.713,2.2 -4.712,5.328 0.005,20.314 -0.1,40.627 0.086,60.939 0.013,1.373 2.153,3.337 3.318,3.37 12.466,0.352 24.6,-0.009 37.121,-0.009 8.45,0 15.422,-4.228 21.511,-10.069 9.714,-9.318 19.733,-18.321 29.744,-27.32 1.497,-1.049 3.74,-2.152 5.474,-2.944 0.653,1.957 1.294,4.429 1.549,6.384 0.257,7.983 -0.1,15.99 0.289,23.963 0.12,10.049 0.557,10.02 13.183,9.986 14.186,0.034 14.937,1.943 14.474,-13.161 -0.003,-14.153 0.013,-28.306 -0.025,-42.459 -0.019,-6.804 -2.022,-13.119 -8.512,-14.061 -9.687,-0.188 -37.875,-1.13 -41.625,-0.13 -5.63,4.313 -16.221,15.94 -21.804,20.843 C 18.969,-14.304 10.473,-6.464 1.896,1.286 1.265,0.857 0.633,0.429 0,0 Z"
           style="fill:none;stroke:#000000;stroke-width:0.5;stroke-linecap:butt;stroke-linejoin:miter;stroke-miterlimit:10;stroke-dasharray:none;stroke-opacity:1"
           id="path7799" /></g><g
         id="g7801"
         transform="translate(90.9873,138.2158)"><path
           d="m 0,0 h 0.036 c 0,-3.154 -0.586,-6.464 0.199,-9.408 0.556,-2.087 2.727,-4.885 4.593,-5.25 4.328,-0.849 8.913,-0.579 13.384,-0.441 2.667,0.083 4.297,1.58 2.373,4.254 C 15.45,-3.707 11.347,4.408 4.839,10.322 4.123,10.974 2.233,12.219 1.742,11.805 0.95,11.138 0.189,9.569 0.086,8.458 -0.174,5.66 0,2.822 0,0 m 73.891,-45.923 c -8.409,0 -16.335,-0.22 -24.231,0.168 -1.787,0.088 -3.643,2.534 -5.085,4.039 -2.523,2.636 -5.125,5.875 -7.268,8.348 -4.461,5.146 -8.392,7.601 -14.836,7.392 -5.486,-0.178 -10.968,-0.49 -16.455,-0.642 -4.148,-0.115 -5.995,-2.449 -6.251,-6.286 -0.187,-2.82 -0.228,-5.656 -0.192,-8.482 0.043,-3.255 -1.119,-4.738 -4.702,-4.694 -14.312,0.175 -28.627,0.149 -42.94,0.044 -2.785,-0.021 -3.86,0.825 -3.849,3.663 0.074,20.141 0.074,40.28 0.032,60.421 -0.008,4.073 2.397,5.922 5.896,5.918 20.802,-0.024 41.612,0.009 62.401,-0.586 6.02,-0.173 11.442,-3.236 15.191,-8.49 13.716,-19.22 27.482,-38.405 41.19,-57.631 0.515,-0.722 0.616,-1.737 1.099,-3.182"
           style="fill:#000000;fill-opacity:1;fill-rule:evenodd;stroke:none"
           id="path7803" /></g><g
         id="g7805"
         transform="translate(90.9873,138.2158)"><path
           d="m 0,0 h 0.036 c 0,-3.154 -0.586,-6.464 0.199,-9.408 0.556,-2.087 2.727,-4.885 4.593,-5.25 4.328,-0.849 8.913,-0.579 13.384,-0.441 2.667,0.083 4.297,1.58 2.373,4.254 C 15.45,-3.707 11.347,4.408 4.839,10.322 4.123,10.974 2.233,12.219 1.742,11.805 0.95,11.138 0.189,9.569 0.086,8.458 -0.174,5.66 0,2.822 0,0 Z m 73.891,-45.923 c -8.409,0 -16.335,-0.22 -24.231,0.168 -1.787,0.088 -3.643,2.534 -5.085,4.039 -2.523,2.636 -5.125,5.875 -7.268,8.348 -4.461,5.146 -8.392,7.601 -14.836,7.392 -5.486,-0.178 -10.968,-0.49 -16.455,-0.642 -4.148,-0.115 -5.995,-2.449 -6.251,-6.286 -0.187,-2.82 -0.228,-5.656 -0.192,-8.482 0.043,-3.255 -1.119,-4.738 -4.702,-4.694 -14.312,0.175 -28.627,0.149 -42.94,0.044 -2.785,-0.021 -3.86,0.825 -3.849,3.663 0.074,20.141 0.074,40.28 0.032,60.421 -0.008,4.073 2.397,5.922 5.896,5.918 20.802,-0.024 41.612,0.009 62.401,-0.586 6.02,-0.173 11.442,-3.236 15.191,-8.49 13.716,-19.22 27.482,-38.405 41.19,-57.631 0.515,-0.722 0.616,-1.737 1.099,-3.182 z"
           style="fill:none;stroke:#000000;stroke-width:0.5;stroke-linecap:butt;stroke-linejoin:miter;stroke-miterlimit:10;stroke-dasharray:none;stroke-opacity:1"
           id="path7807" /></g><g
         id="g7809"
         transform="translate(329.7969,130.5107)"><path
           d="m 0,0 c 0,8.99 0.136,17.983 -0.063,26.969 -0.087,3.91 1.372,5.364 5.232,5.306 11.816,-0.173 23.637,-0.094 35.455,-0.221 5.152,-0.056 7.479,-2.121 7.655,-7.143 0.634,-17.967 0.165,-32.116 0.591,-50.089 0.128,-5.403 -1.074,-12.311 -6.542,-12.374 -11.484,-0.132 -22.515,-0.1 -34,0.007 -5.886,0.055 -8.071,3.522 -8.131,9.578 C 0.105,-18.646 0,-9.323 0,0 -0.058,-0.001 0.058,0 0,0"
           style="fill:#000000;fill-opacity:1;fill-rule:evenodd;stroke:none"
           id="path7811" /></g><g
         id="g7813"
         transform="translate(329.7969,130.5107)"><path
           d="m 0,0 c 0,8.99 0.136,17.983 -0.063,26.969 -0.087,3.91 1.372,5.364 5.232,5.306 11.816,-0.173 23.637,-0.094 35.455,-0.221 5.152,-0.056 7.479,-2.121 7.655,-7.143 0.634,-17.967 0.165,-32.116 0.591,-50.089 0.128,-5.403 -1.074,-12.311 -6.542,-12.374 -11.484,-0.132 -22.515,-0.1 -34,0.007 -5.886,0.055 -8.071,3.522 -8.131,9.578 C 0.105,-18.646 0,-9.323 0,0 -0.058,-0.001 0.058,0 0,0 Z"
           style="fill:none;stroke:#000000;stroke-width:0.5;stroke-linecap:butt;stroke-linejoin:miter;stroke-miterlimit:10;stroke-dasharray:none;stroke-opacity:1"
           id="path7815" /></g></g></g><g
     id="g7817"
     transform="matrix(0.35277777,0,0,-0.35277777,0,193.675)"><g
       id="g7825"
       clip-path="url(#clipPath12795)"><g
         id="g7827"><path
           d="M 232.503,468.841 C 224.08,446.24 215.624,423.65 207.21,401.044 v 0 c -2.346,-6.3 -4.59,-12.639 -7.2,-19.842 v 0 c 2.825,0 4.61,-0.043 6.392,0.007 v 0 c 24.65,0.682 49.297,1.465 73.95,1.976 v 0 c 3.944,0.081 5.118,2.256 6.149,5.227 v 0 c 3.276,9.434 6.537,18.871 9.939,28.259 v 0 c 0.447,1.234 1.681,2.184 2.55,3.266 v 0 c 0.877,-1.072 2.075,-2.012 2.581,-3.238 v 0 c 6.155,-14.911 12.236,-29.852 18.274,-44.811 v 0 c 2.452,-6.076 4.755,-12.209 7.365,-18.93 v 0 c -3.873,1.77 -6.707,3.437 -9.76,4.397 v 0 c -14.898,4.685 -30.307,6.537 -45.814,6.69 v 0 c -14.43,0.141 -28.863,0.082 -43.294,0.024 v 0 c -15.894,-0.066 -31.788,-0.131 -47.679,0.074 v 0 c -22.403,0.287 -43.846,5.508 -63.901,15.672 v 0 c -6.911,3.503 -13.476,7.685 -20.916,11.969 v 0 c 0,-3.674 -0.287,-6.923 0.045,-10.109 v 0 c 2.888,-27.709 20.794,-49.256 45.719,-55.812 v 0 c 16.218,-4.266 32.799,-5.754 49.386,-6.559 v 0 c 24.289,-1.18 48.63,-1.229 72.938,-2.068 v 0 c 24.526,-0.846 48.806,-3.474 72.45,-10.659 v 0 c 7.418,-2.255 13.03,-5.392 15.459,-13.55 v 0 c 2.413,-8.101 6.162,-15.803 9.272,-23.7 v 0 c 0.554,-1.407 0.852,-2.915 1.269,-4.377 v 0 c -0.377,-0.275 -0.755,-0.551 -1.133,-0.826 v 0 c -2.953,2.019 -5.898,4.053 -8.862,6.057 v 0 c -21.54,14.556 -44.905,23.872 -71.203,24.706 v 0 c -41.958,1.33 -83.913,2.8 -125.878,3.869 v 0 c -14.654,0.374 -28.244,3.981 -41.145,10.671 v 0 c -4.885,2.534 -9.753,5.099 -15.595,8.155 v 0 c 2.512,-15.878 9.038,-28.196 19.373,-38.706 v 0 c 9.594,-9.756 22.297,-14.349 34.007,-20.437 v 0 c 16.914,-8.792 35.76,-10.519 54.343,-11.262 v 0 c 27.452,-1.098 54.964,-1.063 82.447,-0.961 v 0 c 20.341,0.074 40.277,-1.726 59.242,-9.541 v 0 c 6.443,-2.656 13.101,-5.369 18.657,-9.43 v 0 c 5.212,-3.81 12.637,-4.108 16.199,-10.44 v 0 c 0.392,-0.698 2.099,-0.886 3.207,-0.918 v 0 c 25.982,-0.726 51.965,-1.419 77.95,-2.022 v 0 c 1.338,-0.031 3.606,0.481 3.899,1.295 v 0 c 1.904,5.282 5.386,10.104 2.58,16.507 v 0 c -9.479,21.644 -18.543,43.472 -27.713,65.252 v 0 c -18.08,42.945 -36.11,85.911 -54.188,128.857 v 0 c -5.744,13.645 -11.417,27.324 -17.434,40.849 v 0 c -2.655,5.968 -7.043,9.283 -14.356,9.347 v 0 c -37.153,0.33 -74.301,1.128 -111.45,1.739 v 0 c -0.136,0.002 -0.271,0.003 -0.405,0.003 v 0 c -6.497,0 -10.11,-2.665 -12.423,-8.873"
           style="fill:#a03124;fill-opacity:1;stroke:none"
           id="path7839" /></g></g></g><g
     id="g7841"
     transform="matrix(0.35277777,0,0,-0.35277777,0,193.675)"
     style="stroke-width:1.00063;stroke-dasharray:none"><g
       id="g7843"
       clip-path="url(#clipPath7847)"
       style="stroke-width:1.00063;stroke-dasharray:none"><g
         id="g7849"
         transform="translate(95.8457,391.7842)"
         style="stroke-width:1.00063;stroke-dasharray:none"><path
           d="m 0,0 c 7.44,-4.284 14.006,-8.466 20.916,-11.969 20.055,-10.165 41.498,-15.385 63.901,-15.673 30.32,-0.388 60.652,0.202 90.974,-0.097 15.507,-0.154 30.915,-2.005 45.813,-6.691 3.054,-0.96 5.887,-2.627 9.76,-4.396 -2.609,6.721 -4.913,12.854 -7.365,18.93 -6.038,14.959 -12.118,29.9 -18.273,44.811 -0.506,1.226 -1.705,2.165 -2.581,3.238 -0.87,-1.082 -2.103,-2.032 -2.55,-3.266 -3.403,-9.388 -6.664,-18.825 -9.939,-28.259 -1.032,-2.971 -2.206,-5.147 -6.15,-5.228 -24.652,-0.51 -49.3,-1.294 -73.949,-1.975 -1.783,-0.05 -3.568,-0.007 -6.393,-0.007 2.61,7.203 4.855,13.541 7.2,19.842 8.414,22.605 16.87,45.196 25.293,67.798 2.361,6.335 6.076,8.98 12.828,8.869 37.15,-0.612 74.297,-1.408 111.45,-1.739 7.313,-0.064 11.702,-3.379 14.357,-9.347 6.017,-13.526 11.689,-27.204 17.434,-40.85 18.077,-42.945 36.108,-85.911 54.187,-128.856 9.17,-21.781 18.234,-43.608 27.714,-65.252 2.805,-6.404 -0.677,-11.225 -2.581,-16.507 -0.293,-0.814 -2.561,-1.326 -3.899,-1.295 -25.985,0.603 -51.968,1.296 -77.95,2.023 -1.108,0.031 -2.814,0.219 -3.207,0.917 -3.561,6.332 -10.986,6.629 -16.199,10.44 -5.556,4.061 -12.214,6.773 -18.657,9.43 -18.965,7.815 -38.901,9.615 -59.241,9.541 -27.484,-0.102 -54.995,-0.137 -82.448,0.961 -18.583,0.743 -37.429,2.47 -54.342,11.262 -11.71,6.088 -24.413,10.681 -34.008,20.437 -10.335,10.51 -16.861,22.828 -19.372,38.706 5.841,-3.057 10.71,-5.621 15.594,-8.155 12.901,-6.691 26.491,-10.297 41.145,-10.671 41.965,-1.07 83.92,-2.539 125.879,-3.869 26.298,-0.833 49.662,-10.15 71.202,-24.707 2.965,-2.003 5.909,-4.037 8.862,-6.056 0.378,0.275 0.756,0.551 1.133,0.826 -0.416,1.462 -0.714,2.97 -1.268,4.377 -3.111,7.897 -6.86,15.599 -9.272,23.7 -2.43,8.157 -8.042,11.295 -15.46,13.55 -23.643,7.185 -47.924,9.812 -72.45,10.659 -24.308,0.839 -48.649,0.888 -72.937,2.068 -16.588,0.805 -33.169,2.292 -49.387,6.559 C 20.839,-59.364 2.933,-37.817 0.045,-10.109 -0.287,-6.924 0,-3.675 0,0 Z"
           style="fill:none;stroke:url(#linearGradient7855);stroke-width:1.00063;stroke-linecap:butt;stroke-linejoin:miter;stroke-miterlimit:10;stroke-dasharray:none;stroke-opacity:1"
           id="path7857" /></g></g></g><g
     id="g7859"
     transform="matrix(0.35277777,0,0,-0.35277777,0,193.675)"
     style="fill:#a03124;fill-opacity:1"><g
       id="g7861"
       clip-path="url(#clipPath7865)"
       style="fill:#a03124;fill-opacity:1"><g
         id="g7867"
         style="fill:#a03124;fill-opacity:1"><g
           id="g7869"
           style="fill:#a03124;fill-opacity:1"><path
             d="m 141.58,238.458 c -3.621,-6.47 -4.379,-13.465 -4.263,-20.726 v 0 c 0.072,-4.435 1.777,-6.105 6.335,-6.025 v 0 c 13.465,0.238 26.937,0.085 40.405,0.085 v 0 c 0,-0.169 0,-0.338 0,-0.507 v 0 c 10.31,0 20.62,0.031 30.93,-0.006 v 0 c 14.21,-0.054 14.044,-0.056 15.763,14.276 v 0 c 0.566,4.718 -0.817,5.963 -5.46,6.108 v 0 c -14.091,0.441 -28.255,0.689 -42.222,2.386 v 0 c -11.652,1.415 -23.108,4.6 -34.565,7.36 v 0 c -0.801,0.193 -1.516,0.29 -2.164,0.289 v 0 c -2.152,0 -3.544,-1.07 -4.759,-3.24"
             style="fill:#a03124;fill-opacity:1;stroke:none"
             id="path7877" /></g></g></g></g><g
     id="g7879"
     transform="matrix(0.35277777,0,0,-0.35277777,0,193.675)"><g
       id="g7881"
       clip-path="url(#clipPath7885)"><g
         id="g7887"
         transform="translate(184.0576,211.792)"><path
           d="m 0,0 c -13.469,0 -26.941,0.152 -40.406,-0.085 -4.557,-0.08 -6.263,1.59 -6.334,6.024 -0.116,7.262 0.642,14.256 4.262,20.727 1.581,2.822 3.461,3.785 6.923,2.951 11.457,-2.76 22.913,-5.945 34.565,-7.36 13.968,-1.696 28.131,-1.945 42.222,-2.386 4.643,-0.145 6.026,-1.39 5.46,-6.107 C 44.973,-0.569 45.139,-0.566 30.929,-0.514 20.619,-0.476 10.309,-0.507 0,-0.507 0,-0.338 0,-0.169 0,0 Z"
           style="fill:none;stroke:url(#linearGradient7893);stroke-width:1;stroke-linecap:butt;stroke-linejoin:miter;stroke-miterlimit:10;stroke-dasharray:none;stroke-opacity:1"
           id="path7895" /></g></g></g></svg>
