<?xml version="1.0" encoding="utf-8"?>
<!-- Generator: Adobe Illustrator 26.1.0, SVG Export Plug-In . SVG Version: 6.00 Build 0)  -->
<svg version="1.1" id="Layer_1" xmlns="http://www.w3.org/2000/svg" xmlns:xlink="http://www.w3.org/1999/xlink" x="0px" y="0px"
	 viewBox="0 0 1207.2 908.9" style="enable-background:new 0 0 1207.2 908.9;" xml:space="preserve">
<style type="text/css">
	.st0{opacity:0.35;}
	.st1{fill:#45B3E1;}
	.st2{fill:#53B0D8;}
	.st3{fill:#60A6C6;}
	.st4{fill:#60A9C9;}
	.st5{fill:#619FBD;}
	.st6{fill:#64ADD0;}
	.st7{fill:#6DAECC;}
	.st8{fill:#5EABCB;}
	.st9{fill:#73A9C1;}
	.st10{fill:#6C9FB7;}
	.st11{fill:#6FB0CA;}
	.st12{fill:#5A9DBA;}
	.st13{fill:#66A9C7;}
	.st14{fill:#7EABBD;}
	.st15{fill:#70A6C1;}
	.st16{fill:#649FBA;}
	.st17{fill:#70A7C0;}
	.st18{fill:#5A98B7;}
	.st19{fill:#7FABBD;}
</style>
<g class="st0">
	<path class="st1" d="M40.8,696.5c19.4-23.3,39.2-46.4,58.2-70c25.4-31.6,50.6-63.4,75.1-95.7c14-18.4,26.4-37.9,39.6-56.9
		c0.4-0.4,0.8-0.7,1.2-1.1v0.1c7.1-0.3,14.2-0.2,21.2-1.1c6.4-0.8,12.6-2.6,19-4c3.4-1.3,6.9-2.7,10.3-4c0.5-0.7,1.1-1.3,1.7-2H267
		c0.7-0.4,1.3-0.7,2-1.1h-0.1c9.4-5.3,16.4-13,22.1-21.9v0.1c0.4-0.4,0.7-0.7,1.1-1.1l-0.1,0.1c0.4-0.4,0.7-0.7,1.1-1.1v0.1
		c0.4-0.4,0.7-0.7,1.1-1.1l-0.1,0.1c0.3-0.5,0.7-0.9,1-1.4c11.9-12.5,23.7-25.1,35.8-37.5c10.8-11.1,21.8-22,32.9-32.8
		c6.1-5.9,9.8-6.6,16.8-1.9c6.2,4.1,12,9,17.2,14.3c2.5,2.5,4.2,2.6,6.1,0.8c4.6-4.3,9.3-8.6,13.3-13.4
		c11.3-13.7,22.3-27.8,33.5-41.6c13.7-17,27.6-33.7,40.9-51c4.6-5.9,7.7-13,11.1-19.8c11-22.2,23.8-43,41.4-60.7
		c11.2-11.2,17.4-25.9,25.3-39.3c2.9-4.8,6.5-9.3,9.8-13.8c1.9-2.6,4.2-2.7,6.9-0.8c4.7,3.3,7.8,7.5,8.8,13.3
		c2,11.4,3.6,23,6.5,34.2c1.9,7.2,5.8,13.9,8.8,20.8c8.7,20.3,16.8,40.8,26,60.9c7.4,16.1,16,31.6,24.2,47.2
		c4.2,8.1,8.8,16,13.5,24.8c6.2-7.9,12.1-15.6,18.2-23.2c4.6-5.9,9.1-11.9,14.1-17.5c5.8-6.4,10.3-7.6,17.1-2.6
		c8.4,6.1,16.7,12.9,23.2,20.9c10.3,12.8,19.4,26.6,28.4,40.4c9.7,14.9,21.2,27.7,35.6,38.3c16.9,12.4,33,25.8,49.9,39.2
		c7.5-6.1,15.5-12.7,23.5-19.1c3.4-2.7,6.9-5.3,10.6-7.5c6.8-4.2,9.6-3.8,15.5,1.5c8.7,7.8,17.3,15.6,26.1,23.2
		c23.3,20.2,45.3,41.7,66,64.5c17.2,19,35.1,37.3,52.1,56.4c10.8,12.2,20.5,25.3,30.7,38c3.1,3.9,6.4,7.7,9.9,11.2
		c4.5,4.5,9,8.4,16.2,8.6c4,0.1,8.3,2.5,11.8,4.9c12.4,9,24.4,18.5,36.7,27.6c10.2,7.5,15.9,18.2,21.7,28.8
		c6.4,11.7,12.7,23.4,18.9,35.1c0.9,1.7,0.9,3.7,1.3,5.6c-0.6,0.2-1.2,0.5-1.8,0.7c-6.1-6.3-12.3-12.5-18.4-18.8
		c-10.9-11.2-21.6-22.7-32.9-33.5c-4.6-4.4-10.4-7.5-15.8-11c-20.5-13.3-41.9-25.8-58.5-44c-28.9-31.6-63.8-56.4-94.4-86
		c-2.6-2.5-5.5-4.9-8.1-7.4c-0.8-0.8-1.3-1.8-2.6-3.8c3.8,0.7,6.3,1.2,8.9,1.6c0-6,1.2-12.1-0.4-17.4c-1.3-4.5-5-9.2-8.9-12.1
		c-13.2-9.8-27-18.8-40.6-28.1c-7-4.8-13.9-9.8-21.1-14.2c-2.2-1.4-5.8-2-8.3-1.3c-5.7,1.6-11.1,4.2-17.1,6.6
		c1.2,2.2,2.5,4.8,4.1,7.2c10.5,15.2,21,30.4,31.7,45.4c2,2.7,5,5,7.9,6.7c11.6,6.9,17.3,17.9,21.6,30.1
		c5.5,15.8,11.5,31.5,17.3,47.3c1,2.7,1.9,5.5,2.8,8.3c-0.7,1.7-1.5,3.4-2.2,5.2c-9.9-14-19.9-28-29.8-42c-0.4-0.7-0.8-1.3-1.2-2
		h0.1c-0.3-0.4-0.7-0.7-1-1.1v0.1c-1.4-2-2.8-4-4.1-6l-0.1,0.1c-0.4-1.2-0.5-2.6-1.2-3.4c-4.8-5-9.7-9.8-14.6-14.6
		c-0.7-0.7-2-0.7-3.1-1h0.1c-0.4-0.3-0.7-0.7-1.1-1v0.1c-0.3-0.3-0.7-0.7-1.1-1h0.1c-0.4-0.3-0.7-0.7-1.1-1v0.1
		c-1.4-1.1-2.7-2.1-4.1-3.2c-14.6-12.6-29.2-25.3-43.8-37.9c1-0.7,2.1-1.5,3.1-2.2l0,0c2.3,1.4,4.7,2.8,7,4.1
		c10.4,6.5,20.8,13,31.3,19.5c0.3-0.2,0.6-0.4,0.9-0.6c-2.2-3.7-4-7.7-6.8-10.9c-13.8-16.1-27.3-32.7-42.2-47.8
		c-9.7-9.9-21.3-18.1-32.8-26c-14.1-9.7-29-18.2-43.4-27.5c-2.5-1.6-5-3.9-6.6-6.5c-14.7-23.6-29.2-47.3-43.7-70.9
		c-0.2-0.4-0.6-0.7-1.7-1.9c-7.2,24.4-14.2,48.1-21.1,71.9c0.3,0.2,0.7,0.5,1,0.8c7.6-4.4,15.2-8.7,22.8-13c5.7-3.3,6-3.2,9,2.5
		c9.7,18.5,15.6,38.5,21.4,58.4c0.7,2.5,1.5,5,2.6,8.9c-6.2-2.6-11.3-4.8-16.4-7c-6.1-2.6-6.8-2.4-7.4,4.2
		c-0.9,10.6-1.1,21.3-2,31.9c-0.3,3.5-1.5,6.9-2.7,11.9c-18.5-21.5-38-39.5-61.1-54.3c-14.4,16.8-28.7,33.6-43.1,50.3
		c-3.1,2.5-6.2,5.1-9.7,8c-0.1-1.4-0.2-2.2-0.3-3c9.9-18.2,19.8-36.3,29.6-54.5c-0.3-0.3-0.5-0.5-0.8-0.8
		c-16.2,15.4-32.5,30.9-48.7,46.3c-3.1,1.9-7.4,2.5-7.8,7.2l-0.1-0.1c-0.3,0.3-0.7,0.7-1,1l0,0c-0.3,0.3-0.7,0.7-1,1l0,0
		c-0.3,0.3-0.7,0.7-1,1l0,0c-0.3,0.3-0.7,0.7-1,1l0,0c-0.3,0.4-0.7,0.7-1,1l0,0c-0.3,0.3-0.7,0.7-1,1l0,0c-0.3,0.3-0.7,0.7-1,1l0,0
		c-0.3,0.3-0.7,0.7-1,1l0,0c-0.3,0.3-0.7,0.7-1,1l0.1,0.1c-2.5-0.6-3.5,0.4-3,3l-0.1-0.1c-0.3,0.3-0.7,0.7-1,1l0.1,0.1
		c-4.2,0.4-6.5,2.8-7,7v-0.1c-0.3,0.4-0.7,0.7-1,1h0.1c-1.5,0.7-3.4,1.1-4.5,2.2c-2.5,2.5-4.6,5.4-6.9,8.1c-0.5-0.4-0.9-0.7-1.4-1
		c-0.2-0.9-0.5-1.8-0.7-2.7v0.1c1.4-2,2.8-4,4.2-6c11.2-15.9,22.5-31.7,33.7-47.6c23.4-33,46.8-65.9,70.1-98.9
		c5.7-8.1,5.7-8.2-2-14.1c-16.5-12.7-30.6-27.6-40.8-45.9c-1.1-2-1.5-4.6-1.8-7c-0.3-2.5-0.3-5,0-7.5c1.9-13.4-1.7-25.3-9.2-36.2
		c-9.5-13.7-19-27.3-28.5-40.9c-1-1.5-2-3-3.7-5.5c-3.7,5.7-6.6,9.7-9,13.9c-14.3,24.8-28.4,49.7-42.8,74.4
		c-9.9,17-20,33.7-30.2,50.5c-3.1,5.1-6.6,9.9-9.9,14.9c-0.2,0.2-0.4,0.3-0.6,0.5c0.1,0.1,0.3,0.3,0.3,0.2c0.2-0.1,0.4-0.3,0.5-0.5
		c5.6-3.9,11.6-7.4,16.9-11.7c22.9-18.7,45.7-37.7,68.6-56.5c0.5-0.4,1-0.8,1.6-1.1c0.5,0.2,1,0.4,1.4,0.6
		C560,324.6,546.7,366.8,533,410c14.3-12.2,27.9-23.7,41.4-35.2c0.4-0.3,0.9-0.6,1.3-0.9h-0.1c0.4-0.4,0.7-0.8,1.1-1.2
		c0.3-0.3,0.6-0.5,1-0.8c0.1,1.4,0.2,2.8,0.3,4.2c-10.3,14.5-20.6,28.9-30.8,43.5c-1.8,2.5-3.1,5.5-4.2,8.3
		c-4.3,10.6-11.1,19.2-20.2,26c-0.6,0.4-1.2,0.9-1.8,1.3v-0.1c-0.4,0.3-0.7,0.7-1.1,1h0.1c-1.7,0.9-3.6,1.5-4.9,2.7
		c-3.9,3.5-7.5,7.3-11.1,11c-0.3-0.2-0.6-0.4-0.9-0.6c0.6-2.4,1.2-4.8,1.8-7.2l0,0c1.3-3,2.7-6,4-9l0,0c0.7-1.7,1.4-3.4,2-5.1
		c1.4-4.4,2.9-8.8,4.3-13.3c-0.2-0.2-0.5-0.5-0.8-0.7c-1.1,1.1-2.3,2.3-3.4,3.4c-36.1,38.4-72.2,76.9-108.4,115.3
		c-1.1,1.2-2.4,2.3-3.6,3.4c-3.2,2.5-6.4,5-9.9,7.8c-0.2-1.3-0.3-2.1-0.4-2.9l0,0c1.3-2,2.6-4.1,3.9-6.1l0,0
		c1.4-2.3,2.8-4.6,4.2-6.9c16.2-23.4,32-47,48.8-70c18.5-25.4,38-50.1,57-75.2c0.6-0.8,1-1.7,1.6-2.5c0.9-1.1,1.8-2.3,2.7-3.5
		c-0.3-0.2-0.5-0.4-0.8-0.6c-1,1-1.9,2.1-2.9,3.1c-16.1,15.7-32.3,31.5-48.4,47.2c-12.7,12.4-25.2,24.9-37.8,37.4
		c-0.8-1.1-1.6-2.1-2.4-3.2l0,0c0.3-0.4,0.6-0.8,0.9-1.1l0,0c0.4-0.7,0.8-1.3,1.2-2c10.3-14.3,20.3-28.8,30.9-42.8
		c8-10.5,14.9-21.1,17.3-34.6c1.5-8.6,5.7-16.7,8.5-25.1c0.5-1.7,0.3-3.6,0.5-6.8c-2.4,1-4.2,1.4-5.6,2.5
		c-6.2,5-12.3,10.1-18.4,15.1c-1.2,0.5-2.6,0.6-3.4,1.5c-10,9.9-20,19.9-29.9,29.9c-0.9,0.9-1.1,2.5-1.7,3.8
		c-14,14.9-27.9,29.8-41.8,44.8c-1.9,1.1-3.7,2.3-5.9,3.6c-0.1-1.5-0.2-2.6-0.3-3.7c8.3-14.4,16.6-28.8,24.9-43.2
		c1-1.7,1.7-3.6,2.5-5.4c0.1-0.4,0.1-0.7,0.2-1.1c-0.3,0.1-0.6,0.2-1,0.4c-18.3,18-36.6,36-54.9,54.1c-26.2,26-52.4,52.1-78.6,78.1
		c-2.1,2.1-4.5,4-6.8,5.9c-0.5-0.4-1-0.8-1.5-1.2c0.4-1.1,0.5-2.3,1.1-3.1c17.4-24.8,34.8-49.5,52.2-74.3c2.1-3,4.2-5.9,5.5-9.5
		c-13.6,8.5-27.5,16.4-40.6,25.6c-7.9,5.6-15.6,7.8-24.8,5.6c-5.5-1.3-10.9-2.7-16.4-4c-3.1-3.1-4.9-2.8-7.9,1.2v-0.1
		c-0.4,0.3-0.7,0.7-1.1,1l0.1,0.1c-5.5,1.8-9.2,5.5-11,11v-0.1c-0.4,0.4-0.7,0.7-1,1.1h0.1c-0.4,0.4-0.7,0.7-1.1,1.1v-0.1
		c-0.3,0.4-0.7,0.7-1,1.1h0.1c-1.7,2.3-3.4,4.6-5.2,7v-0.1c-0.3,0.4-0.7,0.7-1,1.1h0.1c-0.4,0.4-0.7,0.7-1.1,1.1v-0.1
		c-1.3,2-2.7,4-4,6.1v-0.1c-1.4,2.4-2.7,4.8-4.1,7.2c-8.8,17.2-15.7,35.2-21.1,53.7c-0.6,2.2-2.5,4.3-4.3,5.9
		c-10,8.7-20.2,17.3-30.3,25.9c-1,0.8-1.9,1.7-2.8,2.6c0.2,0.4,0.3,0.9,0.5,1.3c9.2-2.6,18.5-5.1,27.8-7.7c0.2,0.2,0.3,0.5,0.5,0.7
		c-4.2,3.7-8.4,7.3-12.5,11c-16.2,14.6-32.3,29.2-48.5,43.8c-2.4,2.2-4.8,4.5-7.5,6.5c-1.1,0.8-2.8,0.9-5,0.2
		c7.1-12,14.3-24.1,21.4-36.1c-24,17.8-43.7,39.9-65.4,59.8c-1.4,0.5-2.8,1-4.5,1.6c-0.1-1-0.2-1.8-0.3-2.6l0,0
		C39.5,698,40.1,697.2,40.8,696.5z"/>
	<path class="st2" d="M213.4,594c1.9-7,3.8-14,5.9-20.9c0.4-1.2,1.8-2.6,2.9-2.8c5.8-1.1,11.7-1.9,18.7-3
		c-9.5,9.6-18.1,18.4-26.8,27.1C213.9,594.3,213.7,594.2,213.4,594z"/>
	<path class="st3" d="M504.9,461.8c-0.6,2.4-1.2,4.8-1.8,7.2c0.3,0.2,0.6,0.4,0.9,0.6c3.7-3.7,7.3-7.5,11.1-11
		c1.3-1.2,3.3-1.8,4.9-2.7c-10.3,11-20.7,22.1-31,33.1c-0.4-0.3-0.8-0.6-1.2-0.8C493.6,479.4,499.2,470.6,504.9,461.8z"/>
	<path class="st4" d="M554.7,506.6c0.2,0.9,0.5,1.8,0.7,2.7c0.5,0.4,0.9,0.7,1.4,1c2.3-2.7,4.4-5.6,6.9-8.1c1.1-1.1,3-1.5,4.5-2.2
		c-7.3,7.3-14.7,14.6-22,21.9c-0.4-1-0.7-2-1.1-3C548.2,514.9,551.5,510.8,554.7,506.6z"/>
	<path class="st5" d="M415,421.1c0.5-1.3,0.8-2.9,1.7-3.8c9.9-10.1,19.9-20,29.9-29.9c0.8-0.8,2.3-1,3.4-1.5
		c-2.1,2.3-4.2,4.6-6.4,6.8C434.1,402.2,424.5,411.7,415,421.1z"/>
	<path class="st6" d="M366.9,465.8c0.1,1.1,0.2,2.3,0.3,3.7c2.2-1.3,4.1-2.5,5.9-3.6c-4.2,5.5-8.8,10.5-14,14.9
		c-0.5-0.4-1-0.9-1.5-1.3C360.8,474.9,363.8,470.4,366.9,465.8z"/>
	<path class="st7" d="M388.8,560.7c0.1,0.8,0.2,1.6,0.4,2.9c3.5-2.8,6.7-5.3,9.9-7.8c-5.7,6.1-11.4,12.2-17,18.3
		c-0.5-0.4-1-0.7-1.4-1.1C383.4,569,386.1,564.9,388.8,560.7z"/>
	<path class="st8" d="M38.8,698.8c0.1,0.8,0.2,1.6,0.3,2.6c1.7-0.6,3-1.1,4.5-1.6c-4.2,4-8.4,8.1-12.6,12.2
		c-0.8-0.4-1.5-0.9-2.3-1.3C32.1,706.7,35.4,702.7,38.8,698.8z"/>
	<path class="st9" d="M414.8,480.7c0.8,1.1,1.6,2.1,2.4,3.2c-4.8,4.6-9.6,9.2-14.4,13.8c-0.3-0.2-0.5-0.4-0.8-0.6
		C406.2,491.6,410.5,486.1,414.8,480.7z"/>
	<path class="st10" d="M254.9,467.8c-6.3,1.4-12.6,3.2-19,4c-7,0.9-14.1,0.8-21.2,1.1c0.9-0.9,1.8-2.5,2.7-2.6
		C229.9,469.2,242.4,468.5,254.9,467.8z"/>
	<path class="st11" d="M617,480.9c0.1,0.8,0.2,1.5,0.3,3c3.5-2.9,6.6-5.4,9.7-8c-5.1,6-10.2,12-15.2,18c-0.5-0.3-1-0.6-1.5-1
		C612.5,488.8,614.8,484.9,617,480.9z"/>
	<path class="st12" d="M290.8,438.7c-5.8,8.9-12.7,16.6-22.1,21.9C276.1,453.3,283.5,446,290.8,438.7z"/>
	<path class="st13" d="M862.1,477.7c-1,0.7-2.1,1.5-3.1,2.2c-4.2-2.9-8.3-5.8-11.3-9.9c0.4-0.5,0.7-1,1.1-1.4
		C853.2,471.6,857.7,474.7,862.1,477.7z"/>
	<path class="st14" d="M28.7,710.6c0.8,0.4,1.5,0.9,2.3,1.3c-4.7,5.2-9.5,10.5-14.2,15.7c-0.6-0.5-1.1-1.1-1.7-1.7
		C19.6,720.8,24.1,715.7,28.7,710.6z"/>
	<path class="st15" d="M578.1,376c-0.1-1.4-0.2-2.8-0.3-4.2c3.7-3.5,7.3-6.9,11-10.3c0.4,0.4,0.7,0.7,1.1,1
		C586,367,582.1,371.5,578.1,376z"/>
	<path class="st16" d="M909.9,523.9c1,0.3,2.4,0.4,3.1,1c5,4.8,9.8,9.7,14.6,14.6c0.8,0.8,0.8,2.3,1.2,3.4
		C922.5,536.7,916.2,530.3,909.9,523.9z"/>
	<path class="st17" d="M964.8,593.9c0.7-1.7,1.5-3.4,2.2-5.2c2.1,5.1,4.2,10.1,6.4,15.2c-0.4,0.2-0.9,0.5-1.3,0.7
		C969.7,601.1,967.2,597.5,964.8,593.9z"/>
	<path class="st18" d="M209,507c1.9-5.5,5.5-9.2,11-11C216.4,499.6,212.7,503.3,209,507z"/>
	<path class="st19" d="M545,519c0.4,1,0.7,2,1.1,3c-2.6,2.9-5.2,5.7-7.9,8.6c-0.4-0.4-0.8-0.8-1.2-1.1
		C539.6,525.9,542.3,522.5,545,519z"/>
	<path class="st4" d="M569.1,499c0.5-4.2,2.8-6.5,7-7C573.8,494.4,571.5,496.7,569.1,499z"/>
	<path class="st4" d="M589.3,479.1c0.5-4.8,4.7-5.3,7.8-7.2C594.5,474.3,591.9,476.7,589.3,479.1z"/>
	<path class="st18" d="M221,495c3-4,4.8-4.3,7.9-1.2C226.3,494.2,223.7,494.6,221,495z"/>
	<path class="st3" d="M508.9,452.8c-1.3,3-2.7,6-4,9C506.2,458.8,507.6,455.8,508.9,452.8z"/>
	<path class="st18" d="M200.9,516.9c1.7-2.3,3.4-4.6,5.2-7C204.4,512.3,202.6,514.6,200.9,516.9z"/>
	<path class="st7" d="M396.9,547.8c-1.4,2.3-2.8,4.6-4.2,6.9C394.1,552.4,395.5,550.1,396.9,547.8z"/>
	<path class="st18" d="M190.9,532.1c1.4-2.4,2.7-4.8,4.1-7.2C193.6,527.3,192.3,529.7,190.9,532.1z"/>
	<path class="st13" d="M869,481.9c-2.3-1.4-4.7-2.8-7-4.1C864.4,479.1,866.7,480.5,869,481.9z"/>
	<path class="st7" d="M392.7,554.7c-1.3,2-2.6,4.1-3.9,6.1C390.1,558.8,391.4,556.7,392.7,554.7z"/>
	<path class="st4" d="M558.9,500.6c-1.4,2-2.8,4-4.2,6C556.1,504.7,557.5,502.7,558.9,500.6z"/>
	<path class="st16" d="M928.8,542.9c1.4,2,2.8,4,4.1,6C931.6,546.9,930.2,544.9,928.8,542.9z"/>
	<path class="st18" d="M195,525c1.3-2,2.7-4,4-6.1C197.6,520.9,196.3,522.9,195,525z"/>
	<path class="st4" d="M577.2,491c-0.5-2.5,0.5-3.5,3-3C579.2,489.1,578.2,490.1,577.2,491z"/>
	<path class="st16" d="M902.7,517.9c1.4,1.1,2.7,2.1,4.1,3.2C905.5,520,904.1,518.9,902.7,517.9z"/>
	<path class="st3" d="M510.9,447.7c-0.7,1.7-1.4,3.4-2,5.1C509.6,451.1,510.2,449.4,510.9,447.7z"/>
	<path class="st8" d="M40.8,696.5c-0.7,0.8-1.3,1.6-2,2.4C39.5,698,40.1,697.2,40.8,696.5z"/>
	<path class="st12" d="M266.9,461.8c-0.6,0.7-1.1,1.3-1.7,2C265.8,463.1,266.3,462.4,266.9,461.8z"/>
	<path class="st9" d="M416.9,477.6c-0.4,0.7-0.8,1.3-1.2,2C416,478.9,416.5,478.3,416.9,477.6z"/>
	<path class="st16" d="M933.8,549.9c0.4,0.7,0.8,1.3,1.2,2C934.6,551.2,934.2,550.6,933.8,549.9z"/>
	<path class="st12" d="M268.8,460.7c-0.7,0.4-1.3,0.7-2,1.1C267.5,461.4,268.1,461,268.8,460.7z"/>
	<path class="st3" d="M521.1,455.1c0.6-0.4,1.2-0.9,1.8-1.3C522.3,454.2,521.7,454.6,521.1,455.1z"/>
	<path class="st4" d="M583.1,485c0.3-0.3,0.7-0.7,1-1C583.8,484.4,583.5,484.7,583.1,485z"/>
	<path class="st18" d="M219.9,495.9c0.4-0.3,0.7-0.7,1.1-1C220.7,495.3,220.3,495.6,219.9,495.9z"/>
	<path class="st4" d="M584.1,484c0.3-0.4,0.7-0.7,1-1C584.8,483.3,584.5,483.7,584.1,484z"/>
	<path class="st4" d="M568,500c0.3-0.4,0.7-0.7,1-1C568.7,499.3,568.4,499.6,568,500z"/>
	<path class="st4" d="M585.1,483c0.3-0.3,0.7-0.7,1-1C585.8,482.4,585.5,482.7,585.1,483z"/>
	<path class="st4" d="M580.1,488c0.3-0.3,0.7-0.7,1-1C580.8,487.3,580.4,487.7,580.1,488z"/>
	<path class="st18" d="M207.9,507.9c0.4-0.4,0.7-0.7,1-1.1C208.6,507.2,208.3,507.6,207.9,507.9z"/>
	<path class="st18" d="M206.9,509c0.4-0.4,0.7-0.7,1.1-1.1C207.6,508.2,207.3,508.6,206.9,509z"/>
	<path class="st18" d="M206,510c0.3-0.4,0.7-0.7,1-1.1C206.6,509.2,206.3,509.6,206,510z"/>
	<path class="st4" d="M586.1,482c0.3-0.3,0.7-0.7,1-1C586.8,481.4,586.5,481.7,586.1,482z"/>
	<path class="st18" d="M199.9,517.9c0.3-0.4,0.7-0.7,1-1.1C200.6,517.2,200.3,517.6,199.9,517.9z"/>
	<path class="st18" d="M198.9,519c0.4-0.4,0.7-0.7,1.1-1.1C199.6,518.2,199.3,518.6,198.9,519z"/>
	<path class="st4" d="M587.2,481c0.3-0.3,0.7-0.7,1-1C587.8,480.4,587.5,480.7,587.2,481z"/>
	<path class="st9" d="M415.7,479.6c-0.3,0.4-0.6,0.8-0.9,1.1C415.1,480.4,415.4,480,415.7,479.6z"/>
	<path class="st16" d="M906.8,521c0.4,0.3,0.7,0.7,1.1,1C907.6,521.6,907.2,521.3,906.8,521z"/>
	<path class="st16" d="M907.9,521.9c0.3,0.3,0.7,0.7,1.1,1C908.6,522.6,908.2,522.3,907.9,521.9z"/>
	<path class="st16" d="M908.9,522.9c0.4,0.3,0.7,0.7,1.1,1C909.6,523.6,909.2,523.2,908.9,522.9z"/>
	<path class="st4" d="M588.1,480c0.3-0.3,0.7-0.7,1-1C588.8,479.4,588.5,479.7,588.1,480z"/>
	<path class="st15" d="M576.9,372.6c-0.4,0.4-0.7,0.8-1.1,1.2C576.2,373.4,576.5,373,576.9,372.6z"/>
	<path class="st15" d="M575.9,373.7c-0.4,0.3-0.9,0.6-1.3,0.9C575,374.3,575.5,374,575.9,373.7z"/>
	<path class="st10" d="M214.8,472.7c-0.4,0.4-0.8,0.7-1.2,1.1C214,473.4,214.4,473.1,214.8,472.7z"/>
	<path class="st4" d="M581.1,487c0.3-0.3,0.7-0.7,1-1C581.8,486.4,581.5,486.7,581.1,487z"/>
	<path class="st12" d="M293.9,435.7c-0.4,0.4-0.7,0.7-1.1,1.1C293.2,436.5,293.5,436.1,293.9,435.7z"/>
	<path class="st12" d="M292.9,436.7c-0.4,0.4-0.7,0.7-1.1,1.1C292.1,437.4,292.5,437.1,292.9,436.7z"/>
	<path class="st12" d="M294.8,434.4c-0.3,0.5-0.7,0.9-1,1.4C294.1,435.3,294.5,434.9,294.8,434.4z"/>
	<path class="st3" d="M520,456c0.4-0.3,0.7-0.7,1.1-1C520.8,455.3,520.4,455.6,520,456z"/>
	<path class="st12" d="M291.9,437.7c-0.4,0.4-0.7,0.7-1.1,1.1C291.2,438.5,291.5,438.1,291.9,437.7z"/>
	<path class="st4" d="M576.1,492c0.3-0.3,0.7-0.7,1-1C576.8,491.3,576.4,491.6,576.1,492z"/>
	<path class="st4" d="M582.1,486c0.3-0.3,0.7-0.7,1-1C582.8,485.4,582.5,485.7,582.1,486z"/>
	<path class="st16" d="M932.9,548.9c0.3,0.4,0.7,0.7,1,1.1C933.6,549.6,933.3,549.2,932.9,548.9z"/>
</g>
</svg>
