<?xml version="1.0" encoding="utf-8"?>
<!-- Generator: Adobe Illustrator 26.1.0, SVG Export Plug-In . SVG Version: 6.00 Build 0)  -->
<svg version="1.1" id="Layer_1" xmlns="http://www.w3.org/2000/svg" xmlns:xlink="http://www.w3.org/1999/xlink" x="0px" y="0px"
	 viewBox="0 0 561 549" style="enable-background:new 0 0 561 549;" xml:space="preserve">
<style type="text/css">
	.st0{fill-rule:evenodd;clip-rule:evenodd;stroke:#000000;stroke-width:0.5;stroke-miterlimit:10;}
	
		.st1{fill-rule:evenodd;clip-rule:evenodd;fill:url(#SVGID_1_);stroke:url(#SVGID_00000000916175198987182560000017727007455254507447_);stroke-miterlimit:10;}
	
		.st2{fill-rule:evenodd;clip-rule:evenodd;fill:url(#SVGID_00000023264041427476951340000014629872664568171402_);stroke:url(#SVGID_00000090277541749347107610000012234795326238466724_);stroke-miterlimit:10;}
	.st3{fill:none;stroke:#000000;stroke-miterlimit:10;}
</style>
<g>
	<path class="st0" d="M211.38,411.12c-0.48,4.45-0.03,8.68-0.1,11.89c-0.16,7.16-0.15,14.32-0.07,21.48
		c0.08,7.71-0.93,10.39-8.45,10.38c-4.5,0-10.42,0.19-14.87-0.3c-1.59-0.18-3.39-1.95-4.34-3.47c-0.8-1.27-0.66-3.22-0.68-4.87
		c-0.16-17.15-0.31-34.31-0.38-51.46c-0.03-8.33,1.7-9.24,9.83-9.27c7.66-0.03,15.16,0.15,22.81,0c9.84-0.2,18.79,2.19,27.07,7.04
		c7.37,4.32,3.98,5.71,12.51-0.03c7.91-5.32,16.59-7.3,26.3-7.01c8.49,0.25,16.85-0.23,25.33,0c5.21,0.14,7.33,1.64,7.35,6.77
		c0.09,18.66,0.06,37.31,0.21,55.97c0.03,3.74,1.17,6.54-2.57,6.68c-4.15,0.16-14.17,0.14-18.33-0.01c-6.8-0.25-6.43-4.65-6.65-11.5
		c-0.27-8.49-0.1-16.99-0.24-25.48c-0.03-1.54-0.05-4.75-0.4-6.29c-1.59,0.58-4.15,2.43-5.33,3.47
		c-7.73,6.83-15.34,13.8-22.89,20.83c-6.86,6.39-10.66,6.59-17.61,0.34c-7.3-6.57-14.46-13.3-21.73-19.9
		C216.74,415.1,214.06,413.08,211.38,411.12z"/>
	<path class="st0" d="M425.29,412.54c-0.08,1.59-0.23,3.18-0.24,4.77c-0.02,9.16,0.04,18.32-0.02,27.47
		c-0.05,7-1.48,10.13-8.29,10.34c-4.66,0.15-9.21-0.07-13.88,0c-2.75,0.04-4.71-2.2-4.71-5.33c0-20.31-0.1-40.63,0.09-60.94
		c0.01-1.37,2.15-3.34,3.32-3.37c12.47-0.35,24.6,0.01,37.12,0.01c8.45,0,15.42,4.23,21.51,10.07c9.71,9.32,19.73,18.32,29.74,27.32
		c1.5,1.05,3.74,2.15,5.47,2.94c0.65-1.96,1.29-4.43,1.55-6.38c0.26-7.98-0.1-15.99,0.29-23.96c0.12-10.05,0.56-10.02,13.18-9.99
		c14.19-0.03,14.94-1.94,14.47,13.16c0,14.15,0.01,28.31-0.03,42.46c-0.02,6.8-2.02,13.12-8.51,14.06
		c-9.69,0.19-37.88,1.13-41.62,0.13c-5.63-4.31-16.22-15.94-21.8-20.84c-8.68-7.63-17.18-15.47-25.76-23.22
		C426.56,411.68,425.93,412.11,425.29,412.54z"/>
	<path class="st0" d="M165.88,455.71c-8.41,0-16.33,0.22-24.23-0.17c-1.79-0.09-3.64-2.53-5.08-4.04c-2.52-2.64-5.12-5.88-7.27-8.35
		c-4.46-5.15-8.39-7.6-14.84-7.39c-5.49,0.18-10.97,0.49-16.45,0.64c-4.15,0.12-6,2.45-6.25,6.29c-0.19,2.82-0.23,5.66-0.19,8.48
		c0.04,3.25-1.12,4.74-4.7,4.69c-14.31-0.17-28.63-0.15-42.94-0.04c-2.78,0.02-3.86-0.83-3.85-3.66
		c0.07-20.14,0.07-40.28,0.03-60.42c-0.01-4.07,2.4-5.92,5.9-5.92c20.8,0.02,41.61-0.01,62.4,0.59c6.02,0.17,11.44,3.24,15.19,8.49
		c13.72,19.22,27.48,38.4,41.19,57.63C165.29,453.25,165.4,454.26,165.88,455.71z M91.99,409.78c0.01,0,0.02,0,0.04,0
		c0,3.15-0.59,6.46,0.2,9.41c0.56,2.09,2.73,4.88,4.59,5.25c4.33,0.85,8.91,0.58,13.38,0.44c2.67-0.08,4.3-1.58,2.37-4.25
		c-5.14-7.14-9.24-15.25-15.75-21.17c-0.72-0.65-2.61-1.9-3.1-1.48c-0.79,0.67-1.55,2.24-1.66,3.35
		C91.81,404.12,91.99,406.96,91.99,409.78z"/>
	<path class="st0" d="M330.8,417.49c0-8.99,0.14-17.98-0.06-26.97c-0.09-3.91,1.37-5.36,5.23-5.31c11.82,0.17,23.64,0.09,35.46,0.22
		c5.15,0.06,7.48,2.12,7.66,7.14c0.63,17.97,0.16,32.12,0.59,50.09c0.13,5.4-1.07,12.31-6.54,12.37c-11.48,0.13-22.51,0.1-34-0.01
		c-5.89-0.05-8.07-3.52-8.13-9.58C330.9,436.13,330.8,426.81,330.8,417.49C330.74,417.49,330.85,417.49,330.8,417.49z"/>
	<g>
		<linearGradient id="SVGID_1_" gradientUnits="userSpaceOnUse" x1="96.7307" y1="202.2109" x2="472.5245" y2="202.2109">
			<stop  offset="0.2468" style="stop-color:#EC3C10"/>
			<stop  offset="0.5851" style="stop-color:#AE492D"/>
			<stop  offset="1" style="stop-color:#8F2D20"/>
		</linearGradient>
		
			<linearGradient id="SVGID_00000068651666588685118170000006459209277765827498_" gradientUnits="userSpaceOnUse" x1="96.2307" y1="202.2109" x2="473.0245" y2="202.2109">
			<stop  offset="0" style="stop-color:#FFFFFF"/>
			<stop  offset="1" style="stop-color:#000000"/>
		</linearGradient>
		
			<path style="fill-rule:evenodd;clip-rule:evenodd;fill:url(#SVGID_1_);stroke:url(#SVGID_00000068651666588685118170000006459209277765827498_);stroke-miterlimit:10;" d="
			M96.85,156.22c7.44,4.28,14.01,8.47,20.92,11.97c20.06,10.16,41.5,15.39,63.9,15.67c30.32,0.39,60.65-0.2,90.97,0.1
			c15.51,0.15,30.92,2,45.81,6.69c3.05,0.96,5.89,2.63,9.76,4.4c-2.61-6.72-4.91-12.85-7.37-18.93
			c-6.04-14.96-12.12-29.9-18.27-44.81c-0.51-1.23-1.7-2.17-2.58-3.24c-0.87,1.08-2.1,2.03-2.55,3.27
			c-3.4,9.39-6.66,18.83-9.94,28.26c-1.03,2.97-2.21,5.15-6.15,5.23c-24.65,0.51-49.3,1.29-73.95,1.98
			c-1.78,0.05-3.57,0.01-6.39,0.01c2.61-7.2,4.85-13.54,7.2-19.84c8.41-22.61,16.87-45.2,25.29-67.8c2.36-6.34,6.08-8.98,12.83-8.87
			c37.15,0.61,74.3,1.41,111.45,1.74c7.31,0.06,11.7,3.38,14.36,9.35c6.02,13.53,11.69,27.2,17.43,40.85
			c18.08,42.95,36.11,85.91,54.19,128.86c9.17,21.78,18.23,43.61,27.71,65.25c2.8,6.4-0.68,11.22-2.58,16.51
			c-0.29,0.81-2.56,1.33-3.9,1.29c-25.99-0.6-51.97-1.3-77.95-2.02c-1.11-0.03-2.81-0.22-3.21-0.92
			c-3.56-6.33-10.99-6.63-16.2-10.44c-5.56-4.06-12.21-6.77-18.66-9.43c-18.96-7.82-38.9-9.62-59.24-9.54
			c-27.48,0.1-54.99,0.14-82.45-0.96c-18.58-0.74-37.43-2.47-54.34-11.26c-11.71-6.09-24.41-10.68-34.01-20.44
			c-10.34-10.51-16.86-22.83-19.37-38.71c5.84,3.06,10.71,5.62,15.59,8.16c12.9,6.69,26.49,10.3,41.14,10.67
			c41.97,1.07,83.92,2.54,125.88,3.87c26.3,0.83,49.66,10.15,71.2,24.71c2.96,2,5.91,4.04,8.86,6.06c0.38-0.28,0.76-0.55,1.13-0.83
			c-0.42-1.46-0.71-2.97-1.27-4.38c-3.11-7.9-6.86-15.6-9.27-23.7c-2.43-8.16-8.04-11.29-15.46-13.55
			c-23.64-7.18-47.92-9.81-72.45-10.66c-24.31-0.84-48.65-0.89-72.94-2.07c-16.59-0.81-33.17-2.29-49.39-6.56
			c-24.92-6.56-42.83-28.1-45.72-55.81C96.56,163.14,96.85,159.89,96.85,156.22z"/>
		
			<linearGradient id="SVGID_00000180352744130565665160000004975354658562705561_" gradientUnits="userSpaceOnUse" x1="138.3068" y1="321.5144" x2="231.8695" y2="321.5144">
			<stop  offset="0" style="stop-color:#FF8103"/>
			<stop  offset="1" style="stop-color:#E21717"/>
		</linearGradient>
		
			<linearGradient id="SVGID_00000124862177201218036670000006495353458598576544_" gradientUnits="userSpaceOnUse" x1="137.8068" y1="321.5144" x2="232.3695" y2="321.5144">
			<stop  offset="0" style="stop-color:#FFFFFF"/>
			<stop  offset="1" style="stop-color:#000000"/>
		</linearGradient>
		
			<path style="fill-rule:evenodd;clip-rule:evenodd;fill:url(#SVGID_00000180352744130565665160000004975354658562705561_);stroke:url(#SVGID_00000124862177201218036670000006495353458598576544_);stroke-miterlimit:10;" d="
			M185.06,336.21c-13.47,0-26.94-0.15-40.41,0.08c-4.56,0.08-6.26-1.59-6.33-6.02c-0.12-7.26,0.64-14.26,4.26-20.73
			c1.58-2.82,3.46-3.79,6.92-2.95c11.46,2.76,22.91,5.95,34.57,7.36c13.97,1.7,28.13,1.95,42.22,2.39c4.64,0.15,6.03,1.39,5.46,6.11
			c-1.72,14.33-1.55,14.33-15.76,14.28c-10.31-0.04-20.62-0.01-30.93-0.01C185.06,336.55,185.06,336.38,185.06,336.21z"/>
	</g>
	<path class="st3" d="M533,455.5"/>
	<path class="st3" d="M36,455.5"/>
	<path class="st3" d="M541,385.5"/>
	<path class="st3" d="M44,385.5"/>
</g>
</svg>
